<mxfile host="65bd71144e" scale="2" border="0">
    <diagram id="DA0le2EcRUOnKL6Dy9h6" name="第 1 页">
        <mxGraphModel dx="1374" dy="782" grid="1" gridSize="10" guides="1" tooltips="1" connect="0" arrows="1" fold="1" page="1" pageScale="1" pageWidth="827" pageHeight="1169" math="1" shadow="0">
            <root>
                <mxCell id="0"/>
                <mxCell id="1" parent="0"/>
                <mxCell id="37" value="" style="rounded=1;whiteSpace=wrap;html=1;shadow=0;fontFamily=Times New Roman;fontSize=20;fillColor=#f5f5f5;strokeColor=#666666;glass=0;sketch=0;fontColor=#333333;" vertex="1" parent="1">
                    <mxGeometry x="305" y="472" width="190" height="200" as="geometry"/>
                </mxCell>
                <mxCell id="20" value="" style="rounded=1;whiteSpace=wrap;html=1;shadow=0;fontFamily=Times New Roman;fontSize=20;fillColor=#f5f5f5;strokeColor=#666666;fontColor=#333333;" vertex="1" parent="1">
                    <mxGeometry x="280" y="80" width="240" height="250" as="geometry"/>
                </mxCell>
                <mxCell id="2" value="Network" style="shape=cube;whiteSpace=wrap;html=1;boundedLbl=1;backgroundOutline=1;darkOpacity=0.05;darkOpacity2=0.1;shadow=0;fontSize=18;fontFamily=Times New Roman;fontStyle=1;size=10;flipH=1;" vertex="1" parent="1">
                    <mxGeometry x="340" y="200" width="120" height="50" as="geometry"/>
                </mxCell>
                <mxCell id="10" value="Inputs" style="shape=cube;whiteSpace=wrap;html=1;boundedLbl=1;backgroundOutline=1;darkOpacity=0.05;darkOpacity2=0.1;shadow=0;fontSize=18;fontFamily=Times New Roman;fontStyle=1;size=10;flipH=1;" vertex="1" parent="1">
                    <mxGeometry x="340" y="270" width="120" height="40" as="geometry"/>
                </mxCell>
                <mxCell id="14" value="$$\pi(a|s; \theta)$$" style="shape=cube;whiteSpace=wrap;html=1;boundedLbl=1;backgroundOutline=1;darkOpacity=0.05;darkOpacity2=0.1;shadow=0;fontSize=18;fontFamily=Times New Roman;fontStyle=1;size=10;flipH=1;" vertex="1" parent="1">
                    <mxGeometry x="300" y="130" width="90" height="40" as="geometry"/>
                </mxCell>
                <mxCell id="15" value="$$V_\pi(s;\omega)$$" style="shape=cube;whiteSpace=wrap;html=1;boundedLbl=1;backgroundOutline=1;darkOpacity=0.05;darkOpacity2=0.1;shadow=0;fontSize=18;fontFamily=Times New Roman;fontStyle=1;size=10;flipH=1;" vertex="1" parent="1">
                    <mxGeometry x="420" y="130" width="80" height="40" as="geometry"/>
                </mxCell>
                <mxCell id="16" value="" style="endArrow=classic;html=1;fontFamily=Times New Roman;fontSize=18;endSize=6;strokeWidth=2;" edge="1" parent="1">
                    <mxGeometry width="50" height="50" relative="1" as="geometry">
                        <mxPoint x="399.89" y="275" as="sourcePoint"/>
                        <mxPoint x="399.89" y="250" as="targetPoint"/>
                    </mxGeometry>
                </mxCell>
                <mxCell id="17" value="" style="endArrow=classic;html=1;fontFamily=Times New Roman;fontSize=18;entryX=0.547;entryY=1.019;entryDx=0;entryDy=0;entryPerimeter=0;strokeWidth=2;" edge="1" parent="1" target="14">
                    <mxGeometry width="50" height="50" relative="1" as="geometry">
                        <mxPoint x="380" y="204" as="sourcePoint"/>
                        <mxPoint x="360" y="170" as="targetPoint"/>
                    </mxGeometry>
                </mxCell>
                <mxCell id="18" value="" style="endArrow=classic;html=1;fontFamily=Times New Roman;fontSize=18;strokeWidth=2;" edge="1" parent="1">
                    <mxGeometry width="50" height="50" relative="1" as="geometry">
                        <mxPoint x="422" y="204" as="sourcePoint"/>
                        <mxPoint x="460" y="170" as="targetPoint"/>
                    </mxGeometry>
                </mxCell>
                <mxCell id="19" value="Global Network" style="text;html=1;align=center;verticalAlign=middle;resizable=0;points=[];autosize=1;strokeColor=none;fillColor=none;fontSize=20;fontFamily=Times New Roman;fontStyle=1" vertex="1" parent="1">
                    <mxGeometry x="325" y="85" width="150" height="30" as="geometry"/>
                </mxCell>
                <mxCell id="24" style="html=1;entryX=0.503;entryY=0.999;entryDx=0;entryDy=0;entryPerimeter=0;fontFamily=Times New Roman;fontSize=20;startArrow=classic;startFill=1;strokeWidth=2;" edge="1" parent="1" source="21" target="20">
                    <mxGeometry relative="1" as="geometry"/>
                </mxCell>
                <mxCell id="21" value="" style="sketch=0;pointerEvents=1;shadow=1;dashed=0;html=1;strokeColor=none;fillColor=#505050;labelPosition=center;verticalLabelPosition=bottom;verticalAlign=top;outlineConnect=0;align=center;shape=mxgraph.office.concepts.clock;fontFamily=Times New Roman;fontSize=20;flipH=0;" vertex="1" parent="1">
                    <mxGeometry x="370" y="370" width="60" height="60" as="geometry"/>
                </mxCell>
                <mxCell id="36" style="edgeStyle=orthogonalEdgeStyle;html=1;fontFamily=Times New Roman;fontSize=25;startArrow=classic;startFill=1;strokeWidth=2;" edge="1" parent="1" source="25">
                    <mxGeometry relative="1" as="geometry">
                        <mxPoint x="165" y="718" as="targetPoint"/>
                        <Array as="points">
                            <mxPoint x="165" y="718"/>
                        </Array>
                    </mxGeometry>
                </mxCell>
                <mxCell id="25" value="" style="rounded=1;whiteSpace=wrap;html=1;shadow=0;fontFamily=Times New Roman;fontSize=20;fillColor=#f5f5f5;strokeColor=#666666;glass=0;sketch=0;fontColor=#333333;" vertex="1" parent="1">
                    <mxGeometry x="70" y="470" width="190" height="200" as="geometry"/>
                </mxCell>
                <mxCell id="26" value="Network" style="shape=cube;whiteSpace=wrap;html=1;boundedLbl=1;backgroundOutline=1;darkOpacity=0.05;darkOpacity2=0.1;shadow=0;fontSize=16;fontFamily=Times New Roman;fontStyle=0;size=10;flipH=1;" vertex="1" parent="1">
                    <mxGeometry x="130" y="560" width="80" height="50" as="geometry"/>
                </mxCell>
                <mxCell id="27" value="Inputs" style="shape=cube;whiteSpace=wrap;html=1;boundedLbl=1;backgroundOutline=1;darkOpacity=0.05;darkOpacity2=0.1;shadow=0;fontSize=16;fontFamily=Times New Roman;fontStyle=0;size=10;flipH=1;" vertex="1" parent="1">
                    <mxGeometry x="130" y="620" width="80" height="40" as="geometry"/>
                </mxCell>
                <mxCell id="28" value="$$\pi(a|s; \theta)$$" style="shape=cube;whiteSpace=wrap;html=1;boundedLbl=1;backgroundOutline=1;darkOpacity=0.05;darkOpacity2=0.1;shadow=0;fontSize=16;fontFamily=Times New Roman;fontStyle=0;size=10;flipH=1;" vertex="1" parent="1">
                    <mxGeometry x="80" y="510" width="80" height="40" as="geometry"/>
                </mxCell>
                <mxCell id="29" value="$$V_\pi(s;\omega)$$" style="shape=cube;whiteSpace=wrap;html=1;boundedLbl=1;backgroundOutline=1;darkOpacity=0.05;darkOpacity2=0.1;shadow=0;fontSize=16;fontFamily=Times New Roman;fontStyle=0;size=10;flipH=1;" vertex="1" parent="1">
                    <mxGeometry x="175" y="510" width="75" height="40" as="geometry"/>
                </mxCell>
                <mxCell id="49" style="edgeStyle=orthogonalEdgeStyle;html=1;fontFamily=Times New Roman;fontSize=25;startArrow=classic;startFill=1;exitX=0.473;exitY=-0.012;exitDx=0;exitDy=0;exitPerimeter=0;strokeWidth=2;" edge="1" parent="1" source="25">
                    <mxGeometry relative="1" as="geometry">
                        <mxPoint x="170" y="440" as="sourcePoint"/>
                        <mxPoint x="360" y="400" as="targetPoint"/>
                        <Array as="points">
                            <mxPoint x="160" y="400"/>
                        </Array>
                    </mxGeometry>
                </mxCell>
                <mxCell id="33" value="Worker 1" style="text;html=1;align=center;verticalAlign=middle;resizable=0;points=[];autosize=1;strokeColor=none;fillColor=none;fontSize=20;fontFamily=Times New Roman;fontStyle=1" vertex="1" parent="1">
                    <mxGeometry x="110" y="472" width="100" height="30" as="geometry"/>
                </mxCell>
                <mxCell id="35" value="&lt;font style=&quot;font-size: 25px&quot;&gt;Environment&lt;/font&gt;" style="rounded=1;whiteSpace=wrap;html=1;shadow=0;sketch=0;fontFamily=Times New Roman;fontSize=16;fillColor=#f5f5f5;strokeColor=#666666;fontStyle=1;fontColor=#333333;" vertex="1" parent="1">
                    <mxGeometry x="70" y="720" width="690" height="60" as="geometry"/>
                </mxCell>
                <mxCell id="38" value="Network" style="shape=cube;whiteSpace=wrap;html=1;boundedLbl=1;backgroundOutline=1;darkOpacity=0.05;darkOpacity2=0.1;shadow=0;fontSize=16;fontFamily=Times New Roman;fontStyle=0;size=10;flipH=1;" vertex="1" parent="1">
                    <mxGeometry x="365" y="560" width="80" height="50" as="geometry"/>
                </mxCell>
                <mxCell id="39" value="Inputs" style="shape=cube;whiteSpace=wrap;html=1;boundedLbl=1;backgroundOutline=1;darkOpacity=0.05;darkOpacity2=0.1;shadow=0;fontSize=16;fontFamily=Times New Roman;fontStyle=0;size=10;flipH=1;" vertex="1" parent="1">
                    <mxGeometry x="365" y="620" width="80" height="40" as="geometry"/>
                </mxCell>
                <mxCell id="40" value="$$\pi(a|s; \theta)$$" style="shape=cube;whiteSpace=wrap;html=1;boundedLbl=1;backgroundOutline=1;darkOpacity=0.05;darkOpacity2=0.1;shadow=0;fontSize=16;fontFamily=Times New Roman;fontStyle=0;size=10;flipH=1;" vertex="1" parent="1">
                    <mxGeometry x="315" y="510" width="80" height="40" as="geometry"/>
                </mxCell>
                <mxCell id="41" value="$$V_\pi(s;\omega)$$" style="shape=cube;whiteSpace=wrap;html=1;boundedLbl=1;backgroundOutline=1;darkOpacity=0.05;darkOpacity2=0.1;shadow=0;fontSize=16;fontFamily=Times New Roman;fontStyle=0;size=10;flipH=1;" vertex="1" parent="1">
                    <mxGeometry x="410" y="510" width="75" height="40" as="geometry"/>
                </mxCell>
                <mxCell id="50" style="edgeStyle=orthogonalEdgeStyle;html=1;fontFamily=Times New Roman;fontSize=25;startArrow=classic;startFill=1;strokeWidth=2;" edge="1" parent="1" source="42" target="21">
                    <mxGeometry relative="1" as="geometry"/>
                </mxCell>
                <mxCell id="42" value="Worker 2" style="text;html=1;align=center;verticalAlign=middle;resizable=0;points=[];autosize=1;strokeColor=none;fillColor=none;fontSize=20;fontFamily=Times New Roman;fontStyle=1" vertex="1" parent="1">
                    <mxGeometry x="350" y="470" width="100" height="30" as="geometry"/>
                </mxCell>
                <mxCell id="51" style="edgeStyle=orthogonalEdgeStyle;html=1;fontFamily=Times New Roman;fontSize=25;startArrow=classic;startFill=1;strokeWidth=2;" edge="1" parent="1" source="43">
                    <mxGeometry relative="1" as="geometry">
                        <mxPoint x="440" y="400" as="targetPoint"/>
                        <Array as="points">
                            <mxPoint x="645" y="400"/>
                        </Array>
                    </mxGeometry>
                </mxCell>
                <mxCell id="43" value="" style="rounded=1;whiteSpace=wrap;html=1;shadow=0;fontFamily=Times New Roman;fontSize=20;fillColor=#f5f5f5;strokeColor=#666666;glass=0;sketch=0;fontColor=#333333;" vertex="1" parent="1">
                    <mxGeometry x="550" y="470" width="190" height="200" as="geometry"/>
                </mxCell>
                <mxCell id="44" value="Network" style="shape=cube;whiteSpace=wrap;html=1;boundedLbl=1;backgroundOutline=1;darkOpacity=0.05;darkOpacity2=0.1;shadow=0;fontSize=16;fontFamily=Times New Roman;fontStyle=0;size=10;flipH=1;" vertex="1" parent="1">
                    <mxGeometry x="610" y="560" width="80" height="50" as="geometry"/>
                </mxCell>
                <mxCell id="45" value="Inputs" style="shape=cube;whiteSpace=wrap;html=1;boundedLbl=1;backgroundOutline=1;darkOpacity=0.05;darkOpacity2=0.1;shadow=0;fontSize=16;fontFamily=Times New Roman;fontStyle=0;size=10;flipH=1;" vertex="1" parent="1">
                    <mxGeometry x="610" y="620" width="80" height="40" as="geometry"/>
                </mxCell>
                <mxCell id="46" value="$$\pi(a|s; \theta)$$" style="shape=cube;whiteSpace=wrap;html=1;boundedLbl=1;backgroundOutline=1;darkOpacity=0.05;darkOpacity2=0.1;shadow=0;fontSize=16;fontFamily=Times New Roman;fontStyle=0;size=10;flipH=1;" vertex="1" parent="1">
                    <mxGeometry x="560" y="510" width="80" height="40" as="geometry"/>
                </mxCell>
                <mxCell id="47" value="$$V_\pi(s;\omega)$$" style="shape=cube;whiteSpace=wrap;html=1;boundedLbl=1;backgroundOutline=1;darkOpacity=0.05;darkOpacity2=0.1;shadow=0;fontSize=16;fontFamily=Times New Roman;fontStyle=0;size=10;flipH=1;" vertex="1" parent="1">
                    <mxGeometry x="655" y="510" width="75" height="40" as="geometry"/>
                </mxCell>
                <mxCell id="48" value="Worker N" style="text;html=1;align=center;verticalAlign=middle;resizable=0;points=[];autosize=1;strokeColor=none;fillColor=none;fontSize=20;fontFamily=Times New Roman;fontStyle=1" vertex="1" parent="1">
                    <mxGeometry x="595" y="472" width="100" height="30" as="geometry"/>
                </mxCell>
                <mxCell id="52" style="edgeStyle=orthogonalEdgeStyle;html=1;fontFamily=Times New Roman;fontSize=25;startArrow=classic;startFill=1;strokeWidth=2;" edge="1" parent="1">
                    <mxGeometry relative="1" as="geometry">
                        <mxPoint x="399.76" y="671.9999999999998" as="sourcePoint"/>
                        <mxPoint x="399.76" y="720" as="targetPoint"/>
                        <Array as="points">
                            <mxPoint x="399.76" y="720"/>
                        </Array>
                    </mxGeometry>
                </mxCell>
                <mxCell id="53" style="edgeStyle=orthogonalEdgeStyle;html=1;fontFamily=Times New Roman;fontSize=25;startArrow=classic;startFill=1;strokeWidth=2;" edge="1" parent="1">
                    <mxGeometry relative="1" as="geometry">
                        <mxPoint x="644.76" y="671.9999999999998" as="sourcePoint"/>
                        <mxPoint x="644.76" y="720" as="targetPoint"/>
                        <Array as="points">
                            <mxPoint x="644.76" y="720"/>
                        </Array>
                    </mxGeometry>
                </mxCell>
                <mxCell id="54" value="$$\dots$$" style="text;html=1;align=center;verticalAlign=middle;resizable=0;points=[];autosize=1;strokeColor=none;fillColor=none;fontSize=25;fontFamily=Times New Roman;" vertex="1" parent="1">
                    <mxGeometry x="466" y="547" width="110" height="40" as="geometry"/>
                </mxCell>
            </root>
        </mxGraphModel>
    </diagram>
</mxfile>